<mxfile host="app.diagrams.net" modified="2020-12-03T11:44:39.452Z" agent="5.0 (Macintosh; Intel Mac OS X 10_15_7) AppleWebKit/537.36 (KHTML, like Gecko) Chrome/86.0.4240.198 Safari/537.36" etag="jYwwlyW8Ojv_didrH9dT" version="13.9.7" type="github">
  <diagram id="bb49b0CW6KZnYrvwpF1P" name="第 1 页">
    <mxGraphModel dx="2600" dy="534" grid="1" gridSize="10" guides="1" tooltips="1" connect="1" arrows="1" fold="1" page="1" pageScale="1" pageWidth="827" pageHeight="1169" math="0" shadow="0">
      <root>
        <mxCell id="0" />
        <mxCell id="1" parent="0" />
        <mxCell id="kq90SwNwLkgYpBb7G7if-56" value="&lt;span style=&quot;color: rgb(51 , 51 , 51)&quot;&gt;串行审核&lt;br&gt;&lt;br&gt;&lt;br&gt;&lt;br&gt;&lt;br&gt;&lt;/span&gt;" style="rounded=0;whiteSpace=wrap;html=1;" parent="1" vertex="1">
          <mxGeometry x="-1629" y="960" width="440" height="90" as="geometry" />
        </mxCell>
        <mxCell id="kq90SwNwLkgYpBb7G7if-53" value="&lt;span style=&quot;color: rgb(51 , 51 , 51)&quot;&gt;并行审核&lt;br&gt;&lt;br&gt;&lt;br&gt;&lt;br&gt;&lt;br&gt;&lt;br&gt;&lt;/span&gt;" style="rounded=0;whiteSpace=wrap;html=1;" parent="1" vertex="1">
          <mxGeometry x="-1629" y="830" width="440" height="100" as="geometry" />
        </mxCell>
        <mxCell id="kq90SwNwLkgYpBb7G7if-19" value="&lt;span style=&quot;color: rgb(51 , 51 , 51)&quot;&gt;审核流程模式&lt;br&gt;&lt;br&gt;&lt;br&gt;&lt;br&gt;&lt;/span&gt;" style="rounded=0;whiteSpace=wrap;html=1;" parent="1" vertex="1">
          <mxGeometry x="-1629" y="730" width="400" height="70" as="geometry" />
        </mxCell>
        <mxCell id="kq90SwNwLkgYpBb7G7if-65" style="edgeStyle=orthogonalEdgeStyle;rounded=0;orthogonalLoop=1;jettySize=auto;html=1;" parent="1" source="kq90SwNwLkgYpBb7G7if-4" target="kq90SwNwLkgYpBb7G7if-9" edge="1">
          <mxGeometry relative="1" as="geometry" />
        </mxCell>
        <mxCell id="kq90SwNwLkgYpBb7G7if-4" value="创建申请" style="rounded=0;whiteSpace=wrap;html=1;fillColor=#f5f5f5;strokeColor=#666666;fontColor=#333333;" parent="1" vertex="1">
          <mxGeometry x="-890" y="60" width="120" height="40" as="geometry" />
        </mxCell>
        <mxCell id="kq90SwNwLkgYpBb7G7if-66" style="edgeStyle=orthogonalEdgeStyle;rounded=0;orthogonalLoop=1;jettySize=auto;html=1;entryX=0;entryY=0.5;entryDx=0;entryDy=0;" parent="1" source="kq90SwNwLkgYpBb7G7if-9" target="kq90SwNwLkgYpBb7G7if-18" edge="1">
          <mxGeometry relative="1" as="geometry" />
        </mxCell>
        <mxCell id="kq90SwNwLkgYpBb7G7if-9" value="审核" style="rounded=0;whiteSpace=wrap;html=1;fillColor=#f5f5f5;strokeColor=#666666;fontColor=#333333;" parent="1" vertex="1">
          <mxGeometry x="-440" y="60" width="120" height="40" as="geometry" />
        </mxCell>
        <mxCell id="kq90SwNwLkgYpBb7G7if-64" style="edgeStyle=orthogonalEdgeStyle;rounded=0;orthogonalLoop=1;jettySize=auto;html=1;" parent="1" source="kq90SwNwLkgYpBb7G7if-10" target="kq90SwNwLkgYpBb7G7if-4" edge="1">
          <mxGeometry relative="1" as="geometry" />
        </mxCell>
        <mxCell id="TmAt5JiagLd_5_ho0t9e-2" style="edgeStyle=orthogonalEdgeStyle;rounded=0;orthogonalLoop=1;jettySize=auto;html=1;exitX=0.5;exitY=0;exitDx=0;exitDy=0;" edge="1" parent="1" source="kq90SwNwLkgYpBb7G7if-10" target="kq90SwNwLkgYpBb7G7if-68">
          <mxGeometry relative="1" as="geometry">
            <mxPoint x="-1410" y="110" as="sourcePoint" />
            <Array as="points">
              <mxPoint x="-1400" y="120" />
              <mxPoint x="-1510" y="120" />
            </Array>
          </mxGeometry>
        </mxCell>
        <mxCell id="TmAt5JiagLd_5_ho0t9e-4" value="" style="edgeStyle=orthogonalEdgeStyle;rounded=0;orthogonalLoop=1;jettySize=auto;html=1;entryX=0.5;entryY=0;entryDx=0;entryDy=0;" edge="1" parent="1" source="kq90SwNwLkgYpBb7G7if-10" target="kq90SwNwLkgYpBb7G7if-67">
          <mxGeometry relative="1" as="geometry">
            <Array as="points">
              <mxPoint x="-1400" y="120" />
              <mxPoint x="-1290" y="120" />
            </Array>
          </mxGeometry>
        </mxCell>
        <mxCell id="kq90SwNwLkgYpBb7G7if-10" value="创建申请模板" style="rounded=0;whiteSpace=wrap;html=1;fillColor=#f5f5f5;strokeColor=#666666;fontColor=#333333;direction=west;" parent="1" vertex="1">
          <mxGeometry x="-1460" y="60" width="120" height="40" as="geometry" />
        </mxCell>
        <mxCell id="kq90SwNwLkgYpBb7G7if-11" value="模板信息" style="rounded=1;whiteSpace=wrap;html=1;fillColor=#f5f5f5;strokeColor=#666666;fontColor=#333333;glass=0;sketch=0;" parent="1" vertex="1">
          <mxGeometry x="-1640" y="210" width="120" height="40" as="geometry" />
        </mxCell>
        <mxCell id="kq90SwNwLkgYpBb7G7if-15" value="并行审核" style="rounded=1;whiteSpace=wrap;html=1;fillColor=#f5f5f5;strokeColor=#666666;fontColor=#333333;" parent="1" vertex="1">
          <mxGeometry x="-1618" y="755" width="120" height="40" as="geometry" />
        </mxCell>
        <mxCell id="kq90SwNwLkgYpBb7G7if-16" value="串行审核" style="rounded=1;whiteSpace=wrap;html=1;fillColor=#f5f5f5;strokeColor=#666666;fontColor=#333333;" parent="1" vertex="1">
          <mxGeometry x="-1488" y="755" width="120" height="40" as="geometry" />
        </mxCell>
        <mxCell id="kq90SwNwLkgYpBb7G7if-17" value="分组审核" style="rounded=1;whiteSpace=wrap;html=1;fillColor=#f5f5f5;strokeColor=#666666;fontColor=#333333;" parent="1" vertex="1">
          <mxGeometry x="-1358" y="755" width="120" height="40" as="geometry" />
        </mxCell>
        <mxCell id="kq90SwNwLkgYpBb7G7if-18" value="完成审批" style="rounded=0;whiteSpace=wrap;html=1;fillColor=#f5f5f5;strokeColor=#666666;fontColor=#333333;" parent="1" vertex="1">
          <mxGeometry x="280" y="60" width="120" height="40" as="geometry" />
        </mxCell>
        <mxCell id="kq90SwNwLkgYpBb7G7if-23" value="审核A" style="rounded=1;whiteSpace=wrap;html=1;fillColor=#f5f5f5;strokeColor=#666666;fontColor=#333333;glass=0;sketch=0;" parent="1" vertex="1">
          <mxGeometry x="-1619" y="880" width="120" height="40" as="geometry" />
        </mxCell>
        <mxCell id="kq90SwNwLkgYpBb7G7if-34" value="审核C" style="rounded=1;whiteSpace=wrap;html=1;fillColor=#f5f5f5;strokeColor=#666666;fontColor=#333333;glass=0;sketch=0;" parent="1" vertex="1">
          <mxGeometry x="-1319" y="880" width="120" height="40" as="geometry" />
        </mxCell>
        <mxCell id="kq90SwNwLkgYpBb7G7if-47" value="" style="edgeStyle=orthogonalEdgeStyle;rounded=0;orthogonalLoop=1;jettySize=auto;html=1;" parent="1" source="kq90SwNwLkgYpBb7G7if-40" target="kq90SwNwLkgYpBb7G7if-42" edge="1">
          <mxGeometry relative="1" as="geometry" />
        </mxCell>
        <mxCell id="kq90SwNwLkgYpBb7G7if-40" value="审核A" style="rounded=1;whiteSpace=wrap;html=1;fillColor=#f5f5f5;strokeColor=#666666;fontColor=#333333;glass=0;sketch=0;" parent="1" vertex="1">
          <mxGeometry x="-1619" y="1000" width="120" height="40" as="geometry" />
        </mxCell>
        <mxCell id="kq90SwNwLkgYpBb7G7if-41" value="" style="edgeStyle=orthogonalEdgeStyle;rounded=0;orthogonalLoop=1;jettySize=auto;html=1;" parent="1" source="kq90SwNwLkgYpBb7G7if-42" target="kq90SwNwLkgYpBb7G7if-43" edge="1">
          <mxGeometry relative="1" as="geometry" />
        </mxCell>
        <mxCell id="kq90SwNwLkgYpBb7G7if-42" value="审核B" style="rounded=1;whiteSpace=wrap;html=1;fillColor=#f5f5f5;strokeColor=#666666;fontColor=#333333;glass=0;sketch=0;" parent="1" vertex="1">
          <mxGeometry x="-1469" y="1000" width="120" height="40" as="geometry" />
        </mxCell>
        <mxCell id="kq90SwNwLkgYpBb7G7if-43" value="审核C" style="rounded=1;whiteSpace=wrap;html=1;fillColor=#f5f5f5;strokeColor=#666666;fontColor=#333333;glass=0;sketch=0;" parent="1" vertex="1">
          <mxGeometry x="-1319" y="1000" width="120" height="40" as="geometry" />
        </mxCell>
        <mxCell id="kq90SwNwLkgYpBb7G7if-45" value="审核B" style="rounded=1;whiteSpace=wrap;html=1;fillColor=#f5f5f5;strokeColor=#666666;fontColor=#333333;glass=0;sketch=0;" parent="1" vertex="1">
          <mxGeometry x="-1469" y="880" width="120" height="40" as="geometry" />
        </mxCell>
        <mxCell id="kq90SwNwLkgYpBb7G7if-48" style="edgeStyle=orthogonalEdgeStyle;rounded=0;orthogonalLoop=1;jettySize=auto;html=1;exitX=0.5;exitY=1;exitDx=0;exitDy=0;" parent="1" target="kq90SwNwLkgYpBb7G7if-23" edge="1">
          <mxGeometry relative="1" as="geometry">
            <mxPoint x="-1409" y="850" as="sourcePoint" />
            <Array as="points">
              <mxPoint x="-1409" y="860" />
              <mxPoint x="-1559" y="860" />
            </Array>
          </mxGeometry>
        </mxCell>
        <mxCell id="kq90SwNwLkgYpBb7G7if-49" value="" style="edgeStyle=orthogonalEdgeStyle;rounded=0;orthogonalLoop=1;jettySize=auto;html=1;" parent="1" target="kq90SwNwLkgYpBb7G7if-34" edge="1">
          <mxGeometry relative="1" as="geometry">
            <mxPoint x="-1409" y="860" as="sourcePoint" />
            <Array as="points">
              <mxPoint x="-1409" y="860" />
              <mxPoint x="-1259" y="860" />
            </Array>
          </mxGeometry>
        </mxCell>
        <mxCell id="kq90SwNwLkgYpBb7G7if-51" value="" style="edgeStyle=orthogonalEdgeStyle;rounded=0;orthogonalLoop=1;jettySize=auto;html=1;" parent="1" target="kq90SwNwLkgYpBb7G7if-45" edge="1">
          <mxGeometry relative="1" as="geometry">
            <mxPoint x="-1409" y="860" as="sourcePoint" />
          </mxGeometry>
        </mxCell>
        <mxCell id="kq90SwNwLkgYpBb7G7if-58" value="&lt;span style=&quot;color: rgb(51 , 51 , 51)&quot;&gt;串行审核&lt;br&gt;&lt;br&gt;&lt;br&gt;&lt;br&gt;&lt;br&gt;&lt;/span&gt;" style="rounded=0;whiteSpace=wrap;html=1;" parent="1" vertex="1">
          <mxGeometry x="-1629" y="1060" width="440" height="90" as="geometry" />
        </mxCell>
        <mxCell id="kq90SwNwLkgYpBb7G7if-59" value="" style="edgeStyle=orthogonalEdgeStyle;rounded=0;orthogonalLoop=1;jettySize=auto;html=1;" parent="1" source="kq90SwNwLkgYpBb7G7if-60" target="kq90SwNwLkgYpBb7G7if-62" edge="1">
          <mxGeometry relative="1" as="geometry" />
        </mxCell>
        <mxCell id="kq90SwNwLkgYpBb7G7if-60" value="审核A" style="rounded=1;whiteSpace=wrap;html=1;fillColor=#f5f5f5;strokeColor=#666666;fontColor=#333333;glass=0;sketch=0;" parent="1" vertex="1">
          <mxGeometry x="-1619" y="1100" width="120" height="40" as="geometry" />
        </mxCell>
        <mxCell id="kq90SwNwLkgYpBb7G7if-61" value="" style="edgeStyle=orthogonalEdgeStyle;rounded=0;orthogonalLoop=1;jettySize=auto;html=1;" parent="1" source="kq90SwNwLkgYpBb7G7if-62" target="kq90SwNwLkgYpBb7G7if-63" edge="1">
          <mxGeometry relative="1" as="geometry" />
        </mxCell>
        <mxCell id="kq90SwNwLkgYpBb7G7if-62" value="审核B" style="rounded=1;whiteSpace=wrap;html=1;fillColor=#f5f5f5;strokeColor=#666666;fontColor=#333333;glass=0;sketch=0;" parent="1" vertex="1">
          <mxGeometry x="-1469" y="1100" width="120" height="40" as="geometry" />
        </mxCell>
        <mxCell id="kq90SwNwLkgYpBb7G7if-63" value="审核C" style="rounded=1;whiteSpace=wrap;html=1;fillColor=#f5f5f5;strokeColor=#666666;fontColor=#333333;glass=0;sketch=0;" parent="1" vertex="1">
          <mxGeometry x="-1319" y="1100" width="120" height="40" as="geometry" />
        </mxCell>
        <mxCell id="kq90SwNwLkgYpBb7G7if-67" value="审批信息" style="rounded=1;whiteSpace=wrap;html=1;fillColor=#f5f5f5;strokeColor=#666666;fontColor=#333333;glass=0;sketch=0;" parent="1" vertex="1">
          <mxGeometry x="-1350" y="150" width="120" height="40" as="geometry" />
        </mxCell>
        <mxCell id="kq90SwNwLkgYpBb7G7if-68" value="申请信息" style="rounded=1;whiteSpace=wrap;html=1;fillColor=#f5f5f5;strokeColor=#666666;fontColor=#333333;glass=0;sketch=0;" parent="1" vertex="1">
          <mxGeometry x="-1570" y="150" width="120" height="40" as="geometry" />
        </mxCell>
        <mxCell id="TmAt5JiagLd_5_ho0t9e-1" value="模板信息" style="rounded=1;whiteSpace=wrap;html=1;fillColor=#f5f5f5;strokeColor=#666666;fontColor=#333333;glass=0;sketch=0;" vertex="1" parent="1">
          <mxGeometry x="-1500" y="210" width="120" height="40" as="geometry" />
        </mxCell>
      </root>
    </mxGraphModel>
  </diagram>
</mxfile>
